<mxfile host="app.diagrams.net" agent="Mozilla/5.0 (Windows NT 10.0; Win64; x64) AppleWebKit/537.36 (KHTML, like Gecko) Chrome/131.0.0.0 Safari/537.36" version="24.8.8">
  <diagram name="Page-1" id="1JQ0PoATRRroGaoTTLq4">
    <mxGraphModel dx="746" dy="1549" grid="1" gridSize="10" guides="1" tooltips="1" connect="1" arrows="1" fold="1" page="1" pageScale="1" pageWidth="850" pageHeight="1100" math="0" shadow="0">
      <root>
        <mxCell id="0" />
        <mxCell id="1" parent="0" />
        <mxCell id="59YCk0tla1sRUp-CMKc6-1" value="User Authentication" style="rounded=1;whiteSpace=wrap;html=1;" vertex="1" parent="1">
          <mxGeometry x="40" y="20" width="120" height="40" as="geometry" />
        </mxCell>
        <mxCell id="59YCk0tla1sRUp-CMKc6-2" value="LUser login9Successful)" style="sketch=0;outlineConnect=0;fontColor=#FF99CC;gradientColor=none;fillColor=#232F3D;strokeColor=none;dashed=0;verticalLabelPosition=bottom;verticalAlign=top;align=center;html=1;fontSize=12;fontStyle=0;aspect=fixed;pointerEvents=1;shape=mxgraph.aws4.shield2;" vertex="1" parent="1">
          <mxGeometry x="220" y="20" width="40" height="40" as="geometry" />
        </mxCell>
        <mxCell id="59YCk0tla1sRUp-CMKc6-3" value="" style="endArrow=classic;html=1;rounded=0;exitX=1;exitY=0.5;exitDx=0;exitDy=0;" edge="1" parent="1" source="59YCk0tla1sRUp-CMKc6-1" target="59YCk0tla1sRUp-CMKc6-2">
          <mxGeometry width="50" height="50" relative="1" as="geometry">
            <mxPoint x="400" y="340" as="sourcePoint" />
            <mxPoint x="450" y="290" as="targetPoint" />
            <Array as="points" />
          </mxGeometry>
        </mxCell>
        <mxCell id="59YCk0tla1sRUp-CMKc6-4" value="" style="html=1;verticalLabelPosition=bottom;align=center;labelBackgroundColor=#ffffff;verticalAlign=top;strokeWidth=2;strokeColor=#0080F0;shadow=0;dashed=0;shape=mxgraph.ios7.icons.home;" vertex="1" parent="1">
          <mxGeometry x="228" y="-150" width="24" height="25.5" as="geometry" />
        </mxCell>
        <mxCell id="59YCk0tla1sRUp-CMKc6-5" value="" style="endArrow=classic;html=1;rounded=0;" edge="1" parent="1" source="59YCk0tla1sRUp-CMKc6-2">
          <mxGeometry width="50" height="50" relative="1" as="geometry">
            <mxPoint x="170" y="90" as="sourcePoint" />
            <mxPoint x="240" y="96" as="targetPoint" />
            <Array as="points" />
          </mxGeometry>
        </mxCell>
        <mxCell id="59YCk0tla1sRUp-CMKc6-6" value="Proerty Management" style="html=1;verticalLabelPosition=bottom;align=center;labelBackgroundColor=#ffffff;verticalAlign=top;strokeWidth=2;strokeColor=#0080F0;shadow=0;dashed=0;shape=mxgraph.ios7.icons.home;fontColor=#FF99CC;" vertex="1" parent="1">
          <mxGeometry x="228" y="100" width="24" height="25.5" as="geometry" />
        </mxCell>
        <mxCell id="59YCk0tla1sRUp-CMKc6-7" value="Booking System" style="html=1;whiteSpace=wrap;strokeColor=none;fillColor=#0079D6;labelPosition=center;verticalLabelPosition=middle;verticalAlign=top;align=center;fontSize=12;outlineConnect=0;spacingTop=-6;fontColor=#FFFFFF;sketch=0;shape=mxgraph.sitemap.calendar;" vertex="1" parent="1">
          <mxGeometry x="205" y="180" width="70" height="40" as="geometry" />
        </mxCell>
        <mxCell id="59YCk0tla1sRUp-CMKc6-8" value="" style="endArrow=classic;html=1;rounded=0;entryX=0.5;entryY=0;entryDx=0;entryDy=0;entryPerimeter=0;" edge="1" parent="1" source="59YCk0tla1sRUp-CMKc6-6" target="59YCk0tla1sRUp-CMKc6-7">
          <mxGeometry width="50" height="50" relative="1" as="geometry">
            <mxPoint x="424" y="174" as="sourcePoint" />
            <mxPoint x="424" y="70" as="targetPoint" />
            <Array as="points" />
          </mxGeometry>
        </mxCell>
        <mxCell id="59YCk0tla1sRUp-CMKc6-9" value="" style="endArrow=classic;html=1;rounded=0;entryX=1;entryY=0.25;entryDx=0;entryDy=0;entryPerimeter=0;" edge="1" parent="1" target="59YCk0tla1sRUp-CMKc6-7">
          <mxGeometry width="50" height="50" relative="1" as="geometry">
            <mxPoint x="350" y="190" as="sourcePoint" />
            <mxPoint x="335" y="190" as="targetPoint" />
            <Array as="points" />
          </mxGeometry>
        </mxCell>
        <mxCell id="59YCk0tla1sRUp-CMKc6-10" value="Property Search" style="html=1;verticalLabelPosition=bottom;align=center;labelBackgroundColor=#ffffff;verticalAlign=top;strokeWidth=2;strokeColor=#0080F0;shadow=0;dashed=0;shape=mxgraph.ios7.icons.looking_glass;fontColor=#FF99CC;" vertex="1" parent="1">
          <mxGeometry x="360" y="170" width="40" height="35" as="geometry" />
        </mxCell>
        <mxCell id="59YCk0tla1sRUp-CMKc6-11" style="edgeStyle=orthogonalEdgeStyle;rounded=0;orthogonalLoop=1;jettySize=auto;html=1;" edge="1" parent="1" source="59YCk0tla1sRUp-CMKc6-12">
          <mxGeometry relative="1" as="geometry">
            <mxPoint x="300" y="190" as="targetPoint" />
          </mxGeometry>
        </mxCell>
        <mxCell id="59YCk0tla1sRUp-CMKc6-12" value="Payment" style="html=1;whiteSpace=wrap;strokeColor=none;fillColor=#0079D6;labelPosition=center;verticalLabelPosition=middle;verticalAlign=top;align=center;fontSize=12;outlineConnect=0;spacingTop=-6;fontColor=#FFFFFF;sketch=0;shape=mxgraph.sitemap.payment;" vertex="1" parent="1">
          <mxGeometry x="340" y="240" width="80" height="30" as="geometry" />
        </mxCell>
        <mxCell id="59YCk0tla1sRUp-CMKc6-13" value="" style="endArrow=classic;html=1;rounded=0;entryX=0.5;entryY=0;entryDx=0;entryDy=0;entryPerimeter=0;" edge="1" parent="1">
          <mxGeometry width="50" height="50" relative="1" as="geometry">
            <mxPoint x="380" y="200" as="sourcePoint" />
            <mxPoint x="379.5" y="240" as="targetPoint" />
            <Array as="points" />
          </mxGeometry>
        </mxCell>
      </root>
    </mxGraphModel>
  </diagram>
</mxfile>
